<svg xmlns="http://www.w3.org/2000/svg" viewBox="0 0 1200 630" width="1200" height="630">
  <defs>
    <radialGradient id="bg" cx="50%" cy="40%" r="80%">
      <stop offset="0%" stop-color="#0f172a"/>
      <stop offset="100%" stop-color="#0a0e1a"/>
    </radialGradient>
    <linearGradient id="accent" x1="0" y1="0" x2="1" y2="0">
      <stop offset="0%" stop-color="#60a5fa"/>
      <stop offset="100%" stop-color="#38bdf8"/>
    </linearGradient>
  </defs>
  <rect width="1200" height="630" fill="url(#bg)"/>
  <!-- subtle dots -->
  <g fill="#ffffff" opacity="0.04">
    <circle cx="100" cy="100" r="2"/>
    <circle cx="300" cy="200" r="1.5"/>
    <circle cx="500" cy="80" r="2"/>
    <circle cx="700" cy="180" r="1"/>
    <circle cx="900" cy="120" r="2"/>
    <circle cx="1100" cy="200" r="1.5"/>
    <circle cx="200" cy="500" r="1.5"/>
    <circle cx="400" cy="450" r="1"/>
    <circle cx="600" cy="520" r="2"/>
    <circle cx="800" cy="480" r="1"/>
    <circle cx="1000" cy="540" r="1.5"/>
  </g>
  <!-- top label -->
  <text x="600" y="140" font-family="Inter, system-ui, sans-serif" font-size="22" font-weight="600" fill="#94a3b8" text-anchor="middle" letter-spacing="6">7 MAYIS 2026 Ę TIP SUNUMU</text>
  <!-- main title -->
  <text x="600" y="270" font-family="Inter, system-ui, sans-serif" font-size="96" font-weight="900" fill="#f8fafc" text-anchor="middle">Ya_l1larda</text>
  <text x="600" y="380" font-family="Inter, system-ui, sans-serif" font-size="96" font-weight="900" fill="url(#accent)" text-anchor="middle">K1r1lganl1k</text>
  <!-- subtitle -->
  <text x="600" y="450" font-family="Inter, system-ui, sans-serif" font-size="28" font-weight="400" fill="#cbd5e1" text-anchor="middle">Birinci Basamakta Erken Tespit ve M³dahale</text>
  <!-- divider -->
  <line x1="540" y1="490" x2="660" y2="490" stroke="url(#accent)" stroke-width="3"/>
  <!-- author -->
  <text x="600" y="535" font-family="Inter, system-ui, sans-serif" font-size="26" font-weight="500" fill="#e2e8f0" text-anchor="middle">Dr. Sad1k Bar1_ Ad1g³zel</text>
  <text x="600" y="572" font-family="Inter, system-ui, sans-serif" font-size="20" font-weight="400" fill="#64748b" text-anchor="middle">Antalya Eitim ve Ara_t1rma Hastanesi Ę Aile Hekimlii A.B.D.</text>
</svg>
